<svg id="cert_icon" xmlns="http://www.w3.org/2000/svg" width="93.934" height="64.381" viewBox="0 0 93.934 64.381">
  <g id="Group_18069" data-name="Group 18069" transform="translate(42.583 8.648)">
    <path id="Path_63798" data-name="Path 63798" d="M29758.9,16478h38.217a.911.911,0,0,1,.541,1.639l-2.506,2.25,2.564,2.309a.91.91,0,0,1,.068,1.277.9.9,0,0,1-.668.3v.006H29758.9a.906.906,0,0,1-.9-.912.916.916,0,0,1,.359-.729l2.5-2.254-2.562-2.3a.909.909,0,0,1-.068-1.279.888.888,0,0,1,.67-.3Zm35.857,1.816h-33.5l1.553,1.4a.63.63,0,0,1,.072.072.908.908,0,0,1-.07,1.277l-1.555,1.4h33.5l-1.549-1.4a.411.411,0,0,1-.072-.07.914.914,0,0,1,.068-1.279Zm-1.549,2.748h0Zm-30.4-1.35h0Z" transform="translate(-29757.998 -16478)" fill="#6abf4b"/>
  </g>
  <path id="Path_63799" data-name="Path 63799" d="M26848.9,26533.816a.908.908,0,0,1,0-1.816h32.785a.908.908,0,0,1,0,1.816Zm37.8,0a.908.908,0,0,1,0-1.816h8.74a.908.908,0,0,1,0,1.816Z" transform="translate(-26809.582 -26508.869)" fill="#6abf4b"/>
  <path id="Path_63800" data-name="Path 63800" d="M26847.9,30976.814a.907.907,0,0,1,0-1.814h11.635a.907.907,0,0,1,0,1.814Zm18.289,0a.907.907,0,0,1,0-1.814h28.258a.907.907,0,0,1,0,1.814h-28.258Z" transform="translate(-26808.582 -30945.467)" fill="#6abf4b"/>
  <path id="Path_63801" data-name="Path 63801" d="M26847.9,35419.824a.912.912,0,0,1,0-1.824h27a.912.912,0,0,1,0,1.824Zm35.1,0a.912.912,0,0,1,0-1.824h11.443a.912.912,0,0,1,0,1.824Z" transform="translate(-26808.582 -35382.07)" fill="#6abf4b"/>
  <path id="Path_63802" data-name="Path 63802" d="M26847.9,39863.82a.91.91,0,0,1,0-1.82h15.832a.91.91,0,0,1,0,1.82Zm22.115,0a.91.91,0,0,1,0-1.82h14.525a.91.91,0,0,1,0,1.82Zm20.77,0a.91.91,0,0,1,0-1.82h3.662a.91.91,0,0,1,0,1.82Z" transform="translate(-26808.582 -39819.668)" fill="#6abf4b"/>
  <path id="Path_63803" data-name="Path 63803" d="M9409.9,47443.816a.909.909,0,0,1-.9-.914.9.9,0,0,1,.9-.9h13.656a.9.9,0,0,1,.906.9.911.911,0,0,1-.906.914Z" transform="translate(-9395.534 -47388.754)" fill="#6abf4b"/>
  <path id="Path_63804" data-name="Path 63804" d="M49830.9,47443.816a.908.908,0,0,1-.9-.914.9.9,0,0,1,.9-.9h13.66a.9.9,0,0,1,.9.9.912.912,0,0,1-.9.914Z" transform="translate(-49758.691 -47388.754)" fill="#6abf4b"/>
  <path id="Path_63805" data-name="Path 63805" d="M6025.952,30795.094a.9.9,0,0,1,1.231-.336.913.913,0,0,1,.335,1.24l-4.192,7.365,3.087-.67a.89.89,0,0,1,.922.355l1.8,2.275,1.946-8.576a.9.9,0,1,1,1.758.4l-2.354,10.375a.908.908,0,0,1-.327.553.9.9,0,0,1-1.266-.145l-2.649-3.342-4.52.984a.894.894,0,0,1-.64-.1.912.912,0,0,1-.335-1.24Z" transform="translate(-6012.018 -30765.369)" fill="#6abf4b"/>
  <path id="Path_63806" data-name="Path 63806" d="M14335.794,30376a.918.918,0,0,1,.334-1.244.9.9,0,0,1,1.231.338l5.545,9.744a.905.905,0,0,1-.337,1.234.882.882,0,0,1-.639.1l-4.52-.98-2.65,3.344a.9.9,0,0,1-1.591-.41l-2.531-11.162a.9.9,0,1,1,1.755-.4l2.126,9.367,1.8-2.277a.9.9,0,0,1,.923-.357l3.087.67Z" transform="translate(-14310.107 -30345.969)" fill="#6abf4b"/>
  <path id="Path_63807" data-name="Path 63807" d="M4.742,10475H89.191a4.717,4.717,0,0,1,3.35,1.4l.052.057a4.769,4.769,0,0,1,1.341,3.314v54.832a4.776,4.776,0,0,1-1.392,3.373,4.715,4.715,0,0,1-3.35,1.4H4.742a4.715,4.715,0,0,1-3.35-1.4A4.776,4.776,0,0,1,0,10534.605v-54.832a4.777,4.777,0,0,1,1.392-3.369l0,0,.014-.016A4.709,4.709,0,0,1,4.742,10475Zm84.449,1.817H4.742a2.928,2.928,0,0,0-2.075.868,2.966,2.966,0,0,0-.861,2.088v54.832a2.971,2.971,0,0,0,.863,2.09,2.932,2.932,0,0,0,2.073.867H89.191a2.928,2.928,0,0,0,2.072-.867,2.965,2.965,0,0,0,.863-2.09v-54.832a2.957,2.957,0,0,0-.824-2.05l-.039-.038A2.921,2.921,0,0,0,89.191,10476.817Z" transform="translate(0 -10475)" fill="#6abf4b"/>
  <path id="Path_63808" data-name="Path 63808" d="M8973.2,19004a7.157,7.157,0,0,1,5.091,2.125h0a7.276,7.276,0,0,1,0,10.252,7.164,7.164,0,0,1-10.185,0v0a7.281,7.281,0,0,1,0-10.248h0A7.144,7.144,0,0,1,8973.2,19004Zm3.82,3.41a5.385,5.385,0,0,0-7.637,0l0,0a5.464,5.464,0,0,0,0,7.682l0,0a5.367,5.367,0,0,0,7.63,0,5.451,5.451,0,0,0,0-7.68Z" transform="translate(-8953.17 -18991.709)" fill="#6abf4b"/>
  <path id="Path_63809" data-name="Path 63809" d="M5020.782,15044.926l.665.83a.636.636,0,0,0,.336.225l0,0v0a.671.671,0,0,0,.409-.023l.987-.383a2.428,2.428,0,0,1,1.08-.168l.04,0a2.4,2.4,0,0,1,1,.328,2.432,2.432,0,0,1,.8.742,2.49,2.49,0,0,1,.4,1.021l.163,1.051a.65.65,0,0,0,.184.367.659.659,0,0,0,.364.188l1.046.164a2.428,2.428,0,0,1,1.015.4,2.468,2.468,0,0,1,.737.809l.031.061a2.463,2.463,0,0,1,.3.988,2.488,2.488,0,0,1-.166,1.082l-.382.994a.653.653,0,0,0,.2.756l.825.668a2.49,2.49,0,0,1,.679,3l-.033.063a2.47,2.47,0,0,1-.646.791l-.825.668a.673.673,0,0,0-.226.344.686.686,0,0,0,.025.412l.382.992a2.456,2.456,0,0,1-1.917,3.34l-1.046.164a.665.665,0,0,0-.368.184.657.657,0,0,0-.18.369l-.163,1.053a2.49,2.49,0,0,1-.4,1.021,2.445,2.445,0,0,1-.8.74,2.373,2.373,0,0,1-1.039.33l-.029,0a2.448,2.448,0,0,1-1.05-.166l-.987-.387a.656.656,0,0,0-.409-.025l-.026.006a.663.663,0,0,0-.313.221l-.667.83a2.426,2.426,0,0,1-.853.689c-.028.012-.057.023-.085.037a2.479,2.479,0,0,1-.978.2,2.45,2.45,0,0,1-1.915-.928l-.664-.83a.627.627,0,0,0-.336-.227h0a.655.655,0,0,0-.408.025l-.988.387a2.42,2.42,0,0,1-1.079.162l-.044,0a2.38,2.38,0,0,1-.995-.326l-.056-.035a2.454,2.454,0,0,1-.748-.705,2.483,2.483,0,0,1-.4-1.021l-.163-1.053a.677.677,0,0,0-.18-.369l0,0a.663.663,0,0,0-.365-.182l-1.046-.164a2.387,2.387,0,0,1-1.751-1.209,2.425,2.425,0,0,1-.165-2.131l.382-.992a.678.678,0,0,0,.026-.412.69.69,0,0,0-.227-.344l-.824-.668a2.474,2.474,0,0,1,0-3.855l.824-.668a.664.664,0,0,0,.227-.342.685.685,0,0,0-.026-.414l-.382-.994a2.413,2.413,0,0,1,.165-2.131l.034-.057a2.465,2.465,0,0,1,.7-.752,2.43,2.43,0,0,1,1.015-.4l1.046-.164a.668.668,0,0,0,.366-.186v0a.648.648,0,0,0,.184-.363l.163-1.055a2.483,2.483,0,0,1,.4-1.021,2.522,2.522,0,0,1,1.846-1.074,2.468,2.468,0,0,1,1.075.168l.987.383a.671.671,0,0,0,.409.023l.026-.006a.626.626,0,0,0,.313-.219l.665-.83a2.43,2.43,0,0,1,.854-.686,2.437,2.437,0,0,1,2.977.686Zm-.738,1.967-.665-.83a.664.664,0,0,0-.224-.189.69.69,0,0,0-.288-.057.592.592,0,0,0-.511.244l-.665.832a2.447,2.447,0,0,1-1.23.83l-.048.014a2.448,2.448,0,0,1-1.522-.088l-.987-.385a.7.7,0,0,0-.292-.047.669.669,0,0,0-.273.09.621.621,0,0,0-.323.471l-.163,1.055a2.46,2.46,0,0,1-.686,1.375v0a2.461,2.461,0,0,1-1.364.689l-1.046.164a.66.66,0,0,0-.273.105.668.668,0,0,0-.175.184l-.02.037a.645.645,0,0,0-.089.275.689.689,0,0,0,.043.293l.383,1a2.457,2.457,0,0,1-.75,2.82l-.826.668a.69.69,0,0,0-.187.225.772.772,0,0,0,0,.578.716.716,0,0,0,.187.227l.826.668a2.459,2.459,0,0,1,.75,2.824l-.381.99a.649.649,0,0,0,.043.574.593.593,0,0,0,.195.213.662.662,0,0,0,.273.107l1.046.164a2.447,2.447,0,0,1,1.351.676l.013.014,0,0a2.477,2.477,0,0,1,.686,1.373l.163,1.053a.682.682,0,0,0,.1.275.691.691,0,0,0,.185.176l.035.02a.612.612,0,0,0,.259.088l.01,0h.008a.629.629,0,0,0,.288-.047l.988-.385a2.425,2.425,0,0,1,1.524-.088h0a2.457,2.457,0,0,1,1.278.844l.664.832a.67.67,0,0,0,.225.186.625.625,0,0,0,.286.057.711.711,0,0,0,.245-.039l.042-.021a.654.654,0,0,0,.226-.182l.666-.832a2.449,2.449,0,0,1,1.232-.83l.046-.014a2.438,2.438,0,0,1,1.524.088l.987.385a.66.66,0,0,0,.276.047h.012a.645.645,0,0,0,.276-.09.664.664,0,0,0,.217-.2.649.649,0,0,0,.107-.275l.162-1.053a2.474,2.474,0,0,1,.689-1.377,2.445,2.445,0,0,1,1.362-.689l1.046-.164a.675.675,0,0,0,.273-.107.612.612,0,0,0,.194-.219.63.63,0,0,0,.089-.275.661.661,0,0,0-.044-.293l-.384-.992a2.5,2.5,0,0,1-.088-1.535,2.478,2.478,0,0,1,.84-1.287l.825-.668a.694.694,0,0,0,.171-.2l.015-.033a.635.635,0,0,0,.057-.283.69.69,0,0,0-.056-.289.7.7,0,0,0-.186-.225l-.826-.668a2.464,2.464,0,0,1-.751-2.824l.382-.992a.685.685,0,0,0,.046-.293.632.632,0,0,0-.07-.244l-.019-.031a.617.617,0,0,0-.468-.326l-1.047-.164a2.434,2.434,0,0,1-2.05-2.064l-.162-1.055a.662.662,0,0,0-.107-.273.648.648,0,0,0-.217-.2.672.672,0,0,0-.259-.09h-.017a.63.63,0,0,0-.288.047l-.988.385a2.454,2.454,0,0,1-1.524.088v0A2.465,2.465,0,0,1,5020.044,15046.893Z" transform="translate(-4998.835 -15037.418)" fill="#6abf4b"/>
</svg>
